# xmcd
#
# Track frame offsets: 
#        180
#        15769
#        31138
#        47270
#        64324
#        88954
#        105766
#        122170
#        136815
#        155982
#
# Disc length: 2374 seconds
#
# Revision: 2
# Processed by: cddbd v1.5.2PL0 Copyright (c) Steve Scherf et al.
# Submitted via: ExactAudioCopy v1.0b6
#
DISCID=7409440a
DTITLE=Maranatha! Men's Gospel Choir - One Voice (1996)
DYEAR=1996
DGENRE=Praise and Worship
TTITLE0=Morris Chapman - Let All The World Sing Praises
TTITLE1=Terry Steele - Holy Is The Lord
TTITLE2=Louis Price - Hallelujah Hosanna • Halala
TTITLE3=Morris Chapman - Every Time That We Are Gathered
TTITLE4=Cory Briggs - With My Whole Heart
TTITLE5=Louis Price - One Voice
TTITLE6=Jaymes Felix - If The Lord Had Not Been On Our Side
TTITLE7=Rick Riso - Strengthen My Hands
TTITLE8=Donn Thomas - Sacrifice Of Praise • We Are Free
TTITLE9=Jaymes Felix - Yes We All Agree
EXTD=
EXTT0=
EXTT1=
EXTT2=
EXTT3=
EXTT4=
EXTT5=
EXTT6=
EXTT7=
EXTT8=
EXTT9=
PLAYORDER=
